 <svg width="16px" height="16px" viewBox="0 0 16px 16px" fill="none" xmlns="http://www.w3.org/2000/svg">
                                <svg width="16px" height="16px" viewBox="0 0 16px 16px" fill="none" xmlns="http://www.w3.org/2000/svg">
                                    <path d="M7.66667 1.23077H6V0.923077C6 0.678262 5.89464 0.443474 5.70711 0.270363C5.51957 0.0972525 5.26522 0 5 0H3C2.73478 0 2.48043 0.0972525 2.29289 0.270363C2.10536 0.443474 2 0.678262 2 0.923077V1.23077H0.333333C0.244928 1.23077 0.160143 1.26319 0.0976311 1.32089C0.035119 1.37859 0 1.45686 0 1.53846C0 1.62007 0.035119 1.69833 0.0976311 1.75603C0.160143 1.81374 0.244928 1.84615 0.333333 1.84615H0.666667V7.38462C0.666667 7.54783 0.736905 7.70435 0.861929 7.81976C0.986953 7.93517 1.15652 8 1.33333 8H6.66667C6.84348 8 7.01305 7.93517 7.13807 7.81976C7.2631 7.70435 7.33333 7.54783 7.33333 7.38462V1.84615H7.66667C7.75507 1.84615 7.83986 1.81374 7.90237 1.75603C7.96488 1.69833 8 1.62007 8 1.53846C8 1.45686 7.96488 1.37859 7.90237 1.32089C7.83986 1.26319 7.75507 1.23077 7.66667 1.23077ZM2.66667 0.923077C2.66667 0.841472 2.70179 0.763209 2.7643 0.705506C2.82681 0.647802 2.91159 0.615385 3 0.615385H5C5.08841 0.615385 5.17319 0.647802 5.2357 0.705506C5.29821 0.763209 5.33333 0.841472 5.33333 0.923077V1.23077H2.66667V0.923077ZM6.66667 7.38462H1.33333V1.84615H6.66667V7.38462ZM3.33333 3.38462V5.84615C3.33333 5.92776 3.29821 6.00602 3.2357 6.06373C3.17319 6.12143 3.08841 6.15385 3 6.15385C2.91159 6.15385 2.82681 6.12143 2.7643 6.06373C2.70179 6.00602 2.66667 5.92776 2.66667 5.84615V3.38462C2.66667 3.30301 2.70179 3.22475 2.7643 3.16704C2.82681 3.10934 2.91159 3.07692 3 3.07692C3.08841 3.07692 3.17319 3.10934 3.2357 3.16704C3.29821 3.22475 3.33333 3.30301 3.33333 3.38462ZM5.33333 3.38462V5.84615C5.33333 5.92776 5.29821 6.00602 5.2357 6.06373C5.17319 6.12143 5.08841 6.15385 5 6.15385C4.91159 6.15385 4.82681 6.12143 4.7643 6.06373C4.70179 6.00602 4.66667 5.92776 4.66667 5.84615V3.38462C4.66667 3.30301 4.70179 3.22475 4.7643 3.16704C4.82681 3.10934 4.91159 3.07692 5 3.07692C5.08841 3.07692 5.17319 3.10934 5.2357 3.16704C5.29821 3.22475 5.33333 3.30301 5.33333 3.38462Z" fill="#5F5F5F" />
                                </svg>
                            </svg>