 <svg width="16px" height="16px" viewBox="0 0 16px 16px" fill="none" xmlns="http://www.w3.org/2000/svg">
                                <svg width="16px" height="16px" viewBox="0 0 16px 16px" fill="none" xmlns="http://www.w3.org/2000/svg">
                                    <path d="M2.33333 5.67101L3.80433 5.66601L7.015 2.48601C7.141 2.36001 7.21033 2.19267 7.21033 2.01467C7.21033 1.83667 7.141 1.66934 7.015 1.54334L6.48633 1.01467C6.23433 0.762675 5.79466 0.764008 5.54466 1.01367L2.33333 4.19434V5.67101ZM6.015 1.48601L6.54466 2.01367L6.01233 2.54101L5.48366 2.01267L6.015 1.48601ZM2.99999 4.47234L5.00999 2.48134L5.53866 3.01001L3.52899 5.00034L2.99999 5.00201V4.47234Z" fill="#5F5F5F" />
                                    <path d="M1.66667 7H6.33333C6.701 7 7 6.701 7 6.33333V3.444L6.33333 4.11067V6.33333H2.71933C2.71067 6.33333 2.7016px7 6.33667 2.693 6.33667C2.682 6.33667 2.671 6.33367 2.65967 6.33333H1.66667V1.66667H3.949L4.61567 1H1.66667C1.299 1 1 1.299 1 1.66667V6.33333C1 6.701 1.299 7 1.66667 7Z" fill="#5F5F5F" />
                                </svg>
                            </svg>